M48
;DRILL file {KiCad 4.0.1-stable} date 14.01.2016 22:08:55
;FORMAT={-:-/ absolute / inch / decimal}
FMAT,2
INCH,TZ
T1C0.031
T2C0.032
T3C0.039
T4C0.040
%
G90
G05
M72
T1
X4.425Y-3.6
X4.425Y-3.775
X4.5Y-2.6
X4.5Y-2.7
X4.5Y-2.8
X4.5Y-2.9
X4.5Y-3.
X4.5Y-3.1
X4.5Y-3.2
X4.5Y-3.3
X4.5Y-3.4
X4.75Y-3.75
X4.8Y-2.6
X4.8Y-2.7
X4.8Y-2.8
X4.8Y-2.9
X4.8Y-3.
X4.8Y-3.1
X4.8Y-3.2
X4.8Y-3.3
X4.8Y-3.4
X4.9Y-3.75
X5.1Y-2.8
X5.1Y-2.9
X5.1Y-3.
X5.1Y-3.1
X5.4Y-2.8
X5.4Y-2.9
X5.4Y-3.
X5.4Y-3.1
T2
X4.5234Y-3.6
X4.5234Y-3.775
X4.75Y-3.8484
X4.7502Y-3.6
X4.8998Y-3.6
X4.9Y-3.8484
T3
X5.15Y-3.45
X5.15Y-3.85
X5.35Y-3.45
X5.35Y-3.85
X5.55Y-3.45
X5.55Y-3.85
T4
X4.05Y-2.55
X4.05Y-2.65
X4.05Y-2.75
X4.05Y-2.85
X4.05Y-2.95
X4.05Y-3.05
X4.05Y-3.15
X4.05Y-3.25
X4.05Y-3.35
X4.05Y-3.45
X4.05Y-3.55
X4.05Y-3.65
X4.05Y-3.75
X4.15Y-2.55
X4.15Y-2.65
X4.15Y-2.75
X4.15Y-2.85
X4.15Y-2.95
X4.15Y-3.05
X4.15Y-3.15
X4.15Y-3.25
X4.15Y-3.35
X4.15Y-3.45
X4.15Y-3.55
X4.15Y-3.65
X4.15Y-3.75
X5.85Y-2.55
X5.85Y-2.65
X5.85Y-2.75
X5.85Y-3.25
X5.85Y-3.35
X5.85Y-3.45
X5.85Y-3.55
X5.85Y-3.65
X5.85Y-3.75
T0
M30
