G04 #@! TF.FileFunction,Soldermask,Bot*
%FSLAX46Y46*%
G04 Gerber Fmt 4.6, Leading zero omitted, Abs format (unit mm)*
G04 Created by KiCad (PCBNEW 4.0.1-stable) date 14.01.2016 22:08:46*
%MOMM*%
G01*
G04 APERTURE LIST*
%ADD10C,0.100000*%
%ADD11R,1.300000X1.300000*%
%ADD12C,1.300000*%
%ADD13R,1.727200X1.727200*%
%ADD14O,1.727200X1.727200*%
%ADD15O,2.300000X1.600000*%
%ADD16R,2.032000X1.727200*%
%ADD17O,2.032000X1.727200*%
%ADD18C,1.998980*%
%ADD19C,1.501140*%
G04 APERTURE END LIST*
D10*
D11*
X112395000Y-95885000D03*
D12*
X114895000Y-95885000D03*
D13*
X105410000Y-95250000D03*
D14*
X102870000Y-95250000D03*
X105410000Y-92710000D03*
X102870000Y-92710000D03*
X105410000Y-90170000D03*
X102870000Y-90170000D03*
X105410000Y-87630000D03*
X102870000Y-87630000D03*
X105410000Y-85090000D03*
X102870000Y-85090000D03*
X105410000Y-82550000D03*
X102870000Y-82550000D03*
X105410000Y-80010000D03*
X102870000Y-80010000D03*
X105410000Y-77470000D03*
X102870000Y-77470000D03*
X105410000Y-74930000D03*
X102870000Y-74930000D03*
X105410000Y-72390000D03*
X102870000Y-72390000D03*
X105410000Y-69850000D03*
X102870000Y-69850000D03*
X105410000Y-67310000D03*
X102870000Y-67310000D03*
X105410000Y-64770000D03*
X102870000Y-64770000D03*
D15*
X114300000Y-66040000D03*
X114300000Y-68580000D03*
X114300000Y-71120000D03*
X114300000Y-73660000D03*
X114300000Y-76200000D03*
X114300000Y-78740000D03*
X114300000Y-81280000D03*
X114300000Y-83820000D03*
X114300000Y-86360000D03*
X121920000Y-86360000D03*
X121920000Y-83820000D03*
X121920000Y-81280000D03*
X121920000Y-78740000D03*
X121920000Y-76200000D03*
X121920000Y-73660000D03*
X121920000Y-71120000D03*
X121920000Y-68580000D03*
X121920000Y-66040000D03*
D11*
X112395000Y-91440000D03*
D12*
X114895000Y-91440000D03*
D11*
X124460000Y-95250000D03*
D12*
X124460000Y-97750000D03*
D11*
X120650000Y-95250000D03*
D12*
X120650000Y-97750000D03*
D16*
X148590000Y-82550000D03*
D17*
X148590000Y-85090000D03*
X148590000Y-87630000D03*
X148590000Y-90170000D03*
X148590000Y-92710000D03*
X148590000Y-95250000D03*
D16*
X148590000Y-64770000D03*
D17*
X148590000Y-67310000D03*
X148590000Y-69850000D03*
D18*
X135890000Y-97790000D03*
X135890000Y-87630000D03*
X140970000Y-87630000D03*
X140970000Y-97790000D03*
X130810000Y-87630000D03*
X130810000Y-97790000D03*
D15*
X129540000Y-71120000D03*
X129540000Y-73660000D03*
X129540000Y-76200000D03*
X129540000Y-78740000D03*
X137160000Y-78740000D03*
X137160000Y-76200000D03*
X137160000Y-73660000D03*
X137160000Y-71120000D03*
D19*
X124454920Y-91440000D03*
X120655080Y-91440000D03*
M02*
